<svg id="visual" viewBox="0 0 960 540" width="960" height="540" xmlns="http://www.w3.org/2000/svg" xmlns:xlink="http://www.w3.org/1999/xlink" version="1.1"><path d="M0 139L20 130.8C40 122.7 80 106.3 120 113.5C160 120.7 200 151.3 240 153.7C280 156 320 130 360 124.2C400 118.3 440 132.7 480 133.3C520 134 560 121 600 117.8C640 114.7 680 121.3 720 132.2C760 143 800 158 840 150.5C880 143 920 113 940 98L960 83L960 0L940 0C920 0 880 0 840 0C800 0 760 0 720 0C680 0 640 0 600 0C560 0 520 0 480 0C440 0 400 0 360 0C320 0 280 0 240 0C200 0 160 0 120 0C80 0 40 0 20 0L0 0Z" fill="#460204" stroke-linecap="round" stroke-linejoin="miter"></path></svg>